<?xml version="1.0" encoding="utf-8"?>
<!-- Generator: Adobe Illustrator 27.2.0, SVG Export Plug-In . SVG Version: 6.00 Build 0)  -->
<svg version="1.1" id="Capa_1" xmlns="http://www.w3.org/2000/svg" xmlns:xlink="http://www.w3.org/1999/xlink" x="0px" y="0px"
	 viewBox="0 0 25 25" style="enable-background:new 0 0 25 25;" xml:space="preserve">
<style type="text/css">
	.st0{fill:none;stroke:#FFFFFF;stroke-width:0.917;stroke-miterlimit:89.7416;}
	.st1{fill:none;stroke:#FFFFFF;stroke-width:0.837;stroke-miterlimit:89.7416;}
	.st2{fill:none;stroke:#FFFFFF;stroke-width:1.0197;stroke-miterlimit:89.7416;}
</style>
<g id="surface1">
	<path class="st0" d="M16.8,5H20c0.6,0,1,0.3,1,0.8v15.5c0,0.5-0.4,0.8-1,0.8H5c-0.6,0-1-0.3-1-0.8V5.8C4,5.3,4.4,5,5,5h3.3"/>
	<path class="st1" d="M6.1,10l0.8,0.8l2.5-2.1"/>
	<path class="st1" d="M6.1,14.2L6.9,15l2.5-2"/>
	<path class="st1" d="M6.1,18.4l0.8,0.8l2.5-2.1"/>
	<path class="st2" d="M11.2,9.2h8"/>
	<path class="st2" d="M11.2,13.4h8"/>
	<path class="st2" d="M11.2,17.6h8"/>
	<path class="st2" d="M11.2,10.8h8"/>
	<path class="st2" d="M11.2,15.1h8"/>
	<path class="st2" d="M11.2,19.2h8"/>
	<path class="st0" d="M15.6,3h-1.5c-0.3,0-0.6-0.2-0.7-0.5C13.2,2.2,12.9,2,12.5,2s-0.7,0.2-0.9,0.5C11.5,2.8,11.1,3,10.8,3H9.4
		c-0.6,0-1,0.4-1,1v2.1h8.3v-2C16.7,3.6,16.3,3,15.6,3z"/>
</g>
</svg>
