<?xml version="1.0" encoding="utf-8"?>
<!-- Generator: Adobe Illustrator 27.2.0, SVG Export Plug-In . SVG Version: 6.00 Build 0)  -->
<svg version="1.1" id="Capa_1" xmlns="http://www.w3.org/2000/svg" xmlns:xlink="http://www.w3.org/1999/xlink" x="0px" y="0px"
	 viewBox="0 0 30 30" style="enable-background:new 0 0 30 30;" xml:space="preserve">
<style type="text/css">
	.st0{fill:#FFFFFF;}
</style>
<g>
	<path class="st0" d="M19.2,20.9L17.7,20c0.1-0.5,0-1.1,0-1.6l1.6-1c0.1-0.1,0.2-0.4,0.2-0.6l-0.9-2c-0.1-0.1-0.4-0.2-0.6-0.2
		l-1.7,0.4c-0.4-0.5-0.6-0.9-1.1-1.2l0.4-1.7c0.1-0.2-0.1-0.5-0.4-0.6l-2-0.9c-0.2-0.1-0.4,0-0.6,0.1l-0.9,1.7c-0.5-0.1-1.1,0-1.6,0
		l-1-1.6c-0.1-0.1-0.4-0.2-0.6-0.2l-2,0.7c-0.1,0.1-0.2,0.4-0.2,0.6l0.4,1.7c-0.5,0.4-0.9,0.6-1.2,1.1l-1.7-0.4
		c-0.2-0.1-0.5,0.1-0.6,0.4l-0.9,2c-0.1,0.2,0,0.4,0.1,0.6l1.5,0.9c-0.1,0.5,0,1.1,0,1.6l-1.6,1c-0.1,0.1-0.2,0.4-0.2,0.6l1.2,2.1
		c0.1,0.1,0.4,0.2,0.6,0.2l1.7-0.4c0.4,0.5,0.6,0.9,1.1,1.2l-0.4,1.7c-0.1,0.2,0.1,0.5,0.4,0.6l2,0.9c0.2,0.1,0.4,0,0.6-0.1l0.9-1.5
		c0.5,0.1,1.1,0,1.6,0l1,1.6c0.1,0.1,0.4,0.2,0.6,0.2l2-0.7c0.1-0.1,0.2-0.4,0.2-0.6L15.2,25c0.5-0.4,0.9-0.6,1.2-1.1l1.7,0.4
		c0.2,0.1,0.5-0.1,0.6-0.4l0.9-2C19.6,21.2,19.5,21,19.2,20.9z M18,22.6l-1.6-0.4c-0.1,0-0.4,0-0.5,0.2c-0.4,0.6-0.9,1.1-1.5,1.5
		c-0.1,0.1-0.2,0.4-0.2,0.5l0.4,1.6l-1.2,0.5l-0.9-1.4C12.3,25.1,12,25,11.9,25c-0.6,0.1-1.4,0.1-2,0c-0.1,0-0.5,0.1-0.5,0.2
		l-0.9,1.4l-1.2-0.5l0.4-1.6c0-0.1,0-0.4-0.2-0.5c-0.6-0.4-1.1-0.9-1.5-1.5c-0.1-0.1-0.4-0.2-0.5-0.2l-1.6,0.4l-0.5-1.2l1.4-0.9
		c0.1-0.1,0.2-0.4,0.2-0.5c-0.1-0.6-0.1-1.4,0-2c0-0.1-0.1-0.5-0.2-0.5l-1.4-0.9l0.5-1.2l1.6,0.4c0.1,0,0.4,0,0.5-0.2
		c0.4-0.6,0.9-1.1,1.5-1.5c0.1-0.1,0.2-0.4,0.2-0.5L7.3,12l1.2-0.5l0.9,1.4c0.1,0.1,0.4,0.2,0.5,0.2c0.6-0.1,1.4-0.1,2,0
		c0.1,0,0.5-0.1,0.5-0.2l0.9-1.4l1.2,0.5l-0.4,1.6c0,0.1,0,0.4,0.2,0.5c0.6,0.4,1.1,0.9,1.5,1.5c0.1,0.1,0.4,0.2,0.5,0.2l1.6-0.4
		l0.5,1.2l-1.4,0.9c-0.1,0.1-0.2,0.4-0.2,0.5c0.1,0.6,0.1,1.4,0,2c0,0.1,0.1,0.5,0.2,0.5l1.4,0.9L18,22.6z"/>
	<path class="st0" d="M11,15.2c-2.1,0-3.9,1.7-3.9,3.9s1.7,3.9,3.9,3.9s3.9-1.7,3.9-3.9S13.1,15.2,11,15.2z M11,21.9
		c-1.6,0-2.9-1.2-2.9-2.9c0-1.6,1.2-2.9,2.9-2.9s2.9,1.2,2.9,2.9C13.8,20.7,12.4,21.9,11,21.9z"/>
	<path class="st0" d="M26.7,12.1l-0.7-1c0.2-0.2,0.4-0.7,0.4-1.1l1.2-0.1c0.2,0,0.4-0.2,0.4-0.4l0.1-1.7c0-0.2-0.1-0.4-0.4-0.4
		l-1.1-0.2c-0.1-0.4-0.2-0.7-0.5-1l0.7-1c0.1-0.2,0.1-0.5,0-0.5l-1.1-1.1c-0.1-0.2-0.5-0.1-0.6-0.1l-1,0.7c-0.2-0.2-0.7-0.5-1.1-0.5
		l-0.1-1.2c0-0.2-0.2-0.4-0.4-0.4l-1.7-0.1c-0.2,0-0.4,0.1-0.4,0.4l-0.1,1.2c-0.4,0.1-0.7,0.2-1,0.5l-1-0.7c-0.2-0.1-0.5-0.1-0.5,0
		l-1.2,1.1c-0.2,0.1-0.1,0.5-0.1,0.6l0.7,1c-0.2,0.2-0.4,0.7-0.4,1.1l-1.2,0.1c-0.2,0-0.4,0.2-0.4,0.4v1.6c0,0.2,0.1,0.4,0.4,0.4
		l1.1,0.2c0.1,0.4,0.2,0.7,0.5,1l-0.7,1c-0.1,0.2-0.1,0.5,0,0.5l1.1,1.1c0.1,0.2,0.5,0.1,0.6,0.1l1-0.7c0.2,0.2,0.7,0.4,1.1,0.4
		l0.1,1.2c0.1,0.1,0.1,0.2,0.2,0.4h0.1h1.6c0.2,0,0.4-0.1,0.4-0.4l0.2-1.1c0.4-0.1,0.7-0.2,1-0.5l1,0.7c0.2,0.1,0.5,0.1,0.5,0
		l1.1-1.1C26.8,12.3,26.8,12.2,26.7,12.1z M25.2,12.8l-0.9-0.7c-0.1,0-0.4-0.1-0.5,0c-0.5,0.2-0.9,0.4-1.4,0.5
		c-0.1,0.1-0.2,0.1-0.4,0.4l-0.2,1.1H21l-0.1-1.2c-0.1-0.1-0.1-0.2-0.2-0.4c-0.5,0-0.9-0.4-1.4-0.5c-0.1,0-0.4-0.1-0.5,0l-0.9,0.6
		L17.2,12l0.7-0.9c0-0.1,0.1-0.4,0-0.5c-0.2-0.5-0.4-0.9-0.5-1.4c-0.1-0.1-0.1-0.2-0.4-0.4L16,8.6V7.7l1.2-0.1
		c0.1-0.1,0.2-0.1,0.4-0.4c0-0.5,0.4-0.9,0.5-1.4c0-0.1,0.1-0.4,0-0.5l-0.9-0.5l0.6-0.6L18.7,5c0.1,0,0.4,0.1,0.5,0
		c0.5-0.2,0.9-0.4,1.4-0.5c0.1-0.1,0.2-0.1,0.4-0.4L21.2,3h0.9l0.1,1.2c0.1,0.1,0.1,0.2,0.4,0.4c0.5,0,0.9,0.4,1.4,0.5
		c0.1,0,0.4,0.1,0.5,0l0.9-0.6l0.6,0.4l-0.7,0.9c0,0.1-0.1,0.4,0,0.5c0.2,0.5,0.4,0.9,0.5,1.4c0.1,0.1,0.1,0.2,0.4,0.4l1.1,0.2v0.9
		l-1.2,0.1c-0.1,0.1-0.2,0.1-0.4,0.4c0,0.5-0.4,0.9-0.5,1.4c0,0.1-0.1,0.4,0,0.5l0.6,0.9L25.2,12.8z"/>
	<path class="st0" d="M22.3,6.4c-0.2-0.1-0.5-0.1-0.9-0.1c-1.2,0-2.2,1-2.2,2.4c0,1,0.6,1.9,1.5,2.1c0.2,0.1,0.5,0.1,0.9,0.1
		c1.2,0,2.2-1,2.2-2.4C23.8,7.5,23.2,6.7,22.3,6.4z M21.6,9.8c-0.1,0-0.2,0-0.5-0.1c-0.5-0.2-0.9-0.7-0.9-1.2c0-0.7,0.6-1.4,1.4-1.2
		c0.1,0,0.2,0,0.5,0.1C22.6,7.6,23,8.1,23,8.6C22.8,9.2,22.2,9.8,21.6,9.8z"/>
</g>
</svg>
