<?xml version="1.0" encoding="UTF-8"?>
<svg xmlns="http://www.w3.org/2000/svg" xmlns:xlink="http://www.w3.org/1999/xlink" width="30px" height="30px" viewBox="0 0 30 30" version="1.1">
<g id="surface1">
<path style="fill:none;stroke-width:1.5;stroke-linecap:butt;stroke-linejoin:miter;stroke:rgb(100%,100%,100%);stroke-opacity:1;stroke-miterlimit:10;" d="M 7.800781 14.5 L 7.800781 23.300781 L 13.199219 23.300781 L 13.199219 17.398438 C 13.199219 16.898438 13.601562 16.5 14.101562 16.5 L 16.300781 16.5 C 16.800781 16.5 17.199219 16.898438 17.199219 17.398438 L 17.199219 23.300781 L 22.101562 23.300781 L 22.101562 14.5 "/>
<path style=" stroke:none;fill-rule:nonzero;fill:rgb(100%,100%,100%);fill-opacity:1;" d="M 15.300781 6.300781 C 15.101562 6.101562 14.800781 6.101562 14.601562 6.300781 L 5.699219 13.101562 C 5.5 13.300781 5.5 13.5 5.601562 13.699219 L 6 14.199219 C 6.199219 14.398438 6.398438 14.398438 6.601562 14.300781 L 14.699219 8.199219 C 14.898438 8.101562 15.101562 8.101562 15.199219 8.199219 L 23.300781 14.300781 C 23.5 14.5 23.800781 14.398438 23.898438 14.199219 L 24.300781 13.699219 C 24.5 13.5 24.398438 13.199219 24.199219 13.101562 Z M 15.300781 6.300781 "/>
</g>
</svg>
