<?xml version="1.0" encoding="UTF-8"?>
<svg xmlns="http://www.w3.org/2000/svg" xmlns:xlink="http://www.w3.org/1999/xlink" width="25px" height="25px" viewBox="0 0 25 25" version="1.1">
<g id="surface1">
<path style=" stroke:none;fill-rule:nonzero;fill:rgb(100%,100%,100%);fill-opacity:1;" d="M 10.667969 4.167969 C 9.667969 4.167969 8.835938 5 8.835938 6 L 8.835938 6.582031 L 4.582031 6.582031 C 3.582031 6.582031 2.75 7.414062 2.75 8.417969 L 2.75 18.167969 C 2.75 19.167969 3.582031 20 4.582031 20 L 20.5 20 C 21.5 20 22.332031 19.167969 22.332031 18.167969 L 22.332031 8.417969 C 22.332031 7.414062 21.5 6.582031 20.5 6.582031 L 16.25 6.582031 L 16.25 6 C 16.25 5 15.417969 4.167969 14.417969 4.167969 Z M 10.667969 5.332031 L 14.332031 5.332031 C 14.667969 5.332031 14.914062 5.582031 14.914062 5.917969 L 14.914062 6.5 L 10 6.5 L 10 6 C 10.085938 5.667969 10.332031 5.332031 10.667969 5.332031 Z M 13 13.835938 L 21.082031 11.667969 L 21.082031 18.167969 C 21.082031 18.5 20.832031 18.75 20.5 18.75 L 4.582031 18.75 C 4.25 18.75 4 18.5 4 18.167969 L 4 11.667969 L 12.082031 13.835938 C 12.332031 13.917969 12.667969 13.917969 13 13.835938 Z M 4.582031 7.832031 L 20.5 7.832031 C 20.832031 7.832031 21.082031 8.082031 21.082031 8.417969 L 21.082031 10.417969 L 12.667969 12.667969 C 12.585938 12.667969 12.414062 12.667969 12.332031 12.667969 L 3.917969 10.417969 L 3.917969 8.417969 C 3.917969 8.082031 4.25 7.832031 4.582031 7.832031 Z M 4.582031 7.832031 "/>
</g>
</svg>
