<?xml version="1.0" encoding="UTF-8"?>
<svg xmlns="http://www.w3.org/2000/svg" xmlns:xlink="http://www.w3.org/1999/xlink" width="25px" height="25px" viewBox="0 0 25 25" version="1.1">
<g id="surface1">
<path style=" stroke:none;fill-rule:nonzero;fill:rgb(100%,100%,100%);fill-opacity:1;" d="M 3.582031 3.582031 L 3.582031 18.667969 C 3.582031 18.832031 3.75 19.082031 3.917969 19.082031 L 10.25 21.75 L 10.332031 21.75 C 10.5 21.832031 10.582031 21.832031 10.75 21.75 L 15.917969 19.332031 L 20.917969 21.75 C 21 21.832031 21.082031 21.832031 21.082031 21.832031 C 21.167969 21.832031 21.25 21.832031 21.332031 21.75 C 21.5 21.667969 21.582031 21.582031 21.582031 21.332031 L 21.582031 6.417969 C 21.582031 6.25 21.5 6 21.332031 6 L 16.167969 3.582031 C 16 3.5 15.917969 3.5 15.75 3.582031 L 10.5 5.832031 L 4.25 3.082031 C 4.167969 3.082031 3.917969 3.082031 3.832031 3.167969 C 3.667969 3.332031 3.667969 3.417969 3.582031 3.582031 Z M 16.5 4.832031 L 20.667969 6.75 L 20.667969 20.75 L 16.5 18.667969 Z M 10.917969 6.667969 L 15.5 4.667969 L 15.5 18.5 L 10.917969 20.582031 C 10.917969 20.582031 10.917969 6.667969 10.917969 6.667969 Z M 4.582031 4.332031 L 10 6.667969 L 10 20.582031 L 4.582031 18.332031 C 4.582031 18.332031 4.582031 4.332031 4.582031 4.332031 Z M 4.582031 4.332031 "/>
</g>
</svg>
