<svg width="52" height="32" viewBox="0 0 52 32" fill="none" xmlns="http://www.w3.org/2000/svg">
<path d="M7.64114 30.629C9.11463 30.629 10.3091 29.4345 10.3091 27.961C10.3091 26.4875 9.11463 25.293 7.64114 25.293C6.16765 25.293 4.97314 26.4875 4.97314 27.961C4.97314 29.4345 6.16765 30.629 7.64114 30.629Z" stroke="white" stroke-width="1.60722" stroke-miterlimit="10"/>
<path d="M25.1524 30.629C26.6259 30.629 27.8204 29.4345 27.8204 27.961C27.8204 26.4875 26.6259 25.293 25.1524 25.293C23.6789 25.293 22.4844 26.4875 22.4844 27.961C22.4844 29.4345 23.6789 30.629 25.1524 30.629Z" stroke="white" stroke-width="1.60722" stroke-miterlimit="10"/>
<path d="M22.516 28.4751C22.5162 28.0052 22.6439 27.5441 22.8856 27.1411H9.93945C10.1775 27.5457 10.305 28.0057 10.3091 28.4751C10.3067 28.6506 10.2879 28.8255 10.2529 28.9975H22.516C22.4997 28.8237 22.4997 28.6488 22.516 28.4751Z" fill="white"/>
<path d="M29.8372 18.7989H16.2401V13.2299C16.2359 12.7389 16.039 12.2691 15.6918 11.9219C15.3445 11.5747 14.8748 11.3777 14.3838 11.3735H8.75849C8.33806 11.3723 7.92311 11.469 7.54651 11.6559C7.1699 11.8428 6.84199 12.1148 6.58874 12.4504L1.2206 19.3132C0.708047 19.9675 0.425585 20.7725 0.416992 21.6035V26.2163C0.418038 26.5838 0.491739 26.9476 0.633854 27.2865C0.77597 27.6255 0.983694 27.933 1.24509 28.1914C1.50648 28.4498 1.81638 28.654 2.15696 28.7922C2.49754 28.9304 2.86209 28.9999 3.22964 28.9968H5.00562C4.96661 28.8254 4.94773 28.6501 4.94937 28.4744C4.94956 28.0045 5.07732 27.5434 5.31903 27.1404H3.22964C3.10767 27.1426 2.98652 27.1202 2.87341 27.0745C2.76031 27.0288 2.65756 26.9609 2.57131 26.8746C2.48505 26.7883 2.41706 26.6856 2.37139 26.5725C2.32572 26.4594 2.3033 26.3382 2.30548 26.2163V23.4358H13.9257L14.215 23.0259L15.8222 20.6151H29.8292C29.9522 20.6129 30.0744 20.6355 30.1885 20.6816C30.3026 20.7277 30.4062 20.7963 30.4932 20.8833C30.5802 20.9703 30.6488 21.0739 30.6949 21.188C30.7409 21.3021 30.7636 21.4243 30.7614 21.5473V26.1841C30.7636 26.3068 30.741 26.4286 30.6948 26.5423C30.6486 26.6559 30.5799 26.759 30.4928 26.8454C30.4057 26.9318 30.302 26.9996 30.1879 27.0448C30.0739 27.09 29.9518 27.1116 29.8292 27.1083H27.4184C27.6565 27.5128 27.7839 27.9729 27.788 28.4423C27.7856 28.6178 27.7668 28.7926 27.7318 28.9646H29.8051C30.5419 28.9625 31.2479 28.6689 31.7689 28.1479C32.2899 27.6269 32.5835 26.9209 32.5856 26.1841V21.5794C32.5836 20.8482 32.2944 20.147 31.7803 19.6269C31.2662 19.1068 30.5684 18.8095 29.8372 18.7989ZM14.3838 19.4016L12.9373 21.5794H2.32959C2.3307 21.1808 2.46348 20.7938 2.70729 20.4785L8.05131 13.5754C8.13697 13.4659 8.24686 13.3777 8.37234 13.3177C8.49783 13.2578 8.63551 13.2277 8.77456 13.2299H14.3998L14.3838 19.4016Z" fill="white"/>
<path d="M26.7487 1.75073L19.6722 4.34737C17.7889 5.03843 16.8224 7.12534 17.5135 9.00864L18.9114 12.8185C19.6025 14.7018 21.6894 15.6683 23.5727 14.9772L30.6492 12.3806C32.5325 11.6895 33.499 9.60262 32.808 7.71933L31.41 3.90947C30.7189 2.02618 28.632 1.05968 26.7487 1.75073Z" stroke="white" stroke-width="1.60722" stroke-miterlimit="10"/>
<path d="M24.6289 10.4665C24.6289 10.3068 24.4994 10.1772 24.3396 10.1772C24.1798 10.1772 24.0503 10.3068 24.0503 10.4665V18.7759C24.0503 18.9357 24.1798 19.0652 24.3396 19.0652C24.4994 19.0652 24.6289 18.9357 24.6289 18.7759V10.4665Z" stroke="white" stroke-width="1.60722" stroke-miterlimit="10"/>
<path d="M32.2563 7.12315C34.2493 7.12315 36.6038 7.01064 38.3879 10.3376C39.5531 12.5234 39.7781 16.0674 39.9147 20.9372C40.0272 25.1803 35.7038 28.226 35.7038 28.226C35.2056 29.0296 35.5511 29.6243 36.4672 29.5841C38.1709 29.5118 38.9423 29.11 40.7023 29.8252C41.8137 30.2389 42.9971 30.4248 44.1819 30.3717C45.1115 30.3012 46.0142 30.0268 46.8258 29.568C48.1919 28.8689 50.209 29.9538 50.8438 29.6404C52.3627 28.9171 48.0714 26.9884 47.4285 26.1848C43.1693 21.2024 43.314 11.2376 38.7093 6.59276C35.752 3.61136 33.7269 3.9087 31.959 4.40694C31.959 4.40694 31.6777 4.51141 31.6616 4.51944" stroke="white" stroke-width="1.60722" stroke-miterlimit="10"/>
</svg>
